<?xml version="1.0" standalone="no"?>
<!DOCTYPE svg PUBLIC "-//W3C//DTD SVG 20010904//EN"
 "http://www.w3.org/TR/2001/REC-SVG-20010904/DTD/svg10.dtd">
<svg version="1.0" xmlns="http://www.w3.org/2000/svg"
 width="562.000000pt" height="562.000000pt" viewBox="0 0 562.000000 562.000000"
 preserveAspectRatio="xMidYMid meet">
<metadata>
Created by potrace 1.11, written by Peter Selinger 2001-2013
</metadata>
<g transform="translate(0.000000,562.000000) scale(0.100000,-0.100000)"
fill="#000000" stroke="none">
<path d="M4266 5482 c-3 -5 -19 -8 -36 -6 -19 2 -30 -1 -30 -9 0 -8 -4 -7 -10
3 -6 9 -10 10 -10 3 0 -6 -9 -10 -19 -8 -11 2 -25 -3 -31 -10 -6 -8 -17 -12
-24 -9 -8 3 -16 -2 -20 -11 -3 -9 -11 -13 -17 -9 -6 3 -15 0 -20 -7 -7 -11 -9
-11 -9 2 0 17 -38 33 -72 32 -10 0 -18 4 -18 10 0 6 -5 5 -13 -1 -7 -6 -27
-12 -44 -14 -18 -1 -29 -6 -27 -10 3 -4 1 -8 -5 -8 -14 0 -97 -53 -99 -63 -2
-11 -29 -37 -33 -32 -3 2 -9 -7 -16 -21 -8 -18 -8 -23 0 -18 7 3 4 -1 -5 -9
-10 -8 -18 -23 -18 -33 0 -10 -4 -24 -8 -29 -9 -13 -82 -20 -82 -8 0 5 -11 10
-25 11 -14 1 -47 11 -73 22 -26 11 -63 19 -82 19 -19 0 -64 7 -100 16 -86 21
-150 32 -235 41 -88 10 -570 11 -650 2 -131 -15 -214 -30 -300 -55 -84 -24
-116 -37 -278 -112 -37 -17 -70 -31 -73 -31 -3 0 -33 -14 -66 -30 -34 -17 -63
-28 -65 -26 -4 4 -10 29 -12 49 -1 4 -5 7 -11 7 -5 0 -7 -8 -3 -17 3 -10 3
-15 -1 -11 -4 3 -9 14 -10 23 -1 9 -9 21 -17 26 -8 5 -9 9 -3 9 5 0 16 -6 23
-12 11 -11 11 -9 1 10 -6 13 -9 30 -6 38 3 9 -8 21 -34 34 -47 24 -61 26 -34
4 18 -15 18 -15 -2 -5 -12 6 -25 7 -29 3 -5 -4 -5 -1 -1 6 8 14 -24 52 -43 52
-5 0 -12 7 -15 16 -3 8 -10 12 -16 9 -5 -3 -10 -1 -10 4 0 6 -6 11 -13 11 -7
0 -18 5 -25 12 -15 15 -64 17 -74 3 -4 -6 -8 -1 -8 10 0 15 -3 16 -12 7 -16
-16 -31 -15 -22 1 5 8 2 8 -9 -2 -14 -11 -17 -11 -17 0 0 12 -2 12 -9 0 -5 -8
-18 -12 -30 -8 -12 3 -19 2 -17 -2 3 -4 -4 -13 -16 -20 -11 -7 -17 -8 -14 -3
3 6 -1 12 -9 15 -10 4 -12 1 -8 -10 5 -12 2 -15 -11 -10 -10 4 -19 1 -22 -8
-4 -8 -11 -12 -16 -9 -6 4 -14 0 -19 -7 -7 -12 -9 -11 -9 1 -1 11 -4 10 -15
-4 -8 -11 -15 -16 -15 -12 0 5 -8 2 -17 -5 -15 -12 -16 -12 -8 1 7 12 6 13 -7
3 -8 -7 -19 -9 -24 -5 -4 4 -3 0 4 -9 11 -15 9 -16 -18 -14 -16 1 -27 -1 -24
-6 3 -5 0 -9 -6 -9 -6 0 -8 -6 -4 -12 5 -10 4 -10 -6 -1 -11 10 -16 9 -24 -3
-6 -8 -21 -16 -33 -17 -12 0 -20 -4 -18 -7 1 -3 -3 -10 -10 -17 -11 -10 -15
-10 -18 0 -3 7 -6 4 -6 -6 -1 -10 -5 -16 -10 -12 -6 3 -14 -3 -20 -12 -5 -10
-12 -17 -15 -15 -15 6 -17 1 -7 -12 10 -12 8 -13 -10 -9 -15 4 -20 3 -15 -5 4
-7 2 -12 -4 -12 -6 0 -8 -4 -5 -10 3 -5 -1 -10 -9 -10 -8 0 -18 -5 -22 -12 -5
-7 -2 -9 7 -4 8 4 5 -1 -7 -11 -11 -10 -18 -25 -16 -32 3 -8 0 -11 -7 -7 -10
6 -15 -6 -12 -26 0 -5 -6 -8 -14 -8 -16 0 -16 -20 0 -32 6 -5 3 -8 -6 -8 -9 0
-23 -8 -30 -17 -11 -13 -11 -15 -1 -9 11 7 11 4 1 -12 -7 -12 -17 -18 -23 -15
-5 3 -6 1 -2 -5 3 -6 1 -14 -5 -17 -5 -4 -8 -13 -5 -20 2 -7 -2 -16 -9 -19 -8
-3 -12 -12 -9 -20 3 -8 0 -17 -7 -22 -8 -5 -10 -3 -4 6 5 9 4 11 -4 6 -9 -6
-9 -11 1 -24 11 -13 11 -14 -1 -7 -11 6 -13 4 -8 -8 4 -10 1 -17 -5 -17 -6 0
-8 -3 -5 -7 4 -3 -1 -12 -11 -20 -9 -8 -11 -11 -3 -7 11 5 13 3 8 -10 -4 -10
-7 -22 -7 -27 0 -6 -4 -8 -8 -5 -5 3 -7 -15 -6 -40 2 -29 -1 -42 -8 -38 -6 4
-8 3 -5 -3 12 -19 15 -63 6 -69 -6 -4 -6 -11 1 -20 7 -7 10 -19 8 -26 -3 -7 2
-19 11 -26 9 -8 11 -11 4 -8 -21 11 -7 -25 18 -47 14 -12 18 -17 10 -12 -10 7
-8 1 4 -17 11 -15 24 -28 28 -28 5 0 5 -5 1 -12 -5 -8 -2 -9 10 -5 9 4 15 3
12 -2 -3 -5 9 -22 27 -37 36 -31 66 -71 34 -46 -14 12 -16 11 -12 -7 3 -15 0
-18 -12 -14 -13 5 -14 3 -3 -18 17 -31 50 -60 61 -53 5 3 6 -3 2 -12 -5 -13
-3 -16 10 -11 11 4 17 1 17 -9 0 -8 5 -12 10 -9 6 3 10 3 10 -2 0 -10 -36
-107 -55 -148 -22 -49 -53 -171 -75 -300 -11 -66 -27 -151 -35 -190 -8 -38
-17 -99 -20 -135 -2 -36 -7 -75 -9 -87 -16 -78 -24 -682 -18 -1268 1 -38 0
-131 -1 -205 -1 -74 2 -166 6 -205 5 -38 10 -83 12 -100 2 -16 6 -61 10 -100
10 -105 29 -169 90 -299 63 -133 122 -231 159 -264 15 -12 26 -26 26 -32 0 -5
4 -9 8 -7 4 1 20 -10 35 -25 16 -16 32 -28 37 -28 6 0 10 -7 10 -15 0 -8 7
-15 16 -15 8 0 12 -5 9 -10 -3 -6 0 -10 8 -10 8 0 21 -8 28 -18 13 -16 13 -16
-6 -2 -19 14 -19 14 -6 -3 8 -10 20 -16 28 -13 8 3 12 2 9 -3 -3 -4 4 -17 17
-27 12 -10 16 -12 9 -4 -6 8 -12 18 -12 24 0 5 12 -5 26 -22 15 -18 33 -32 40
-32 8 0 14 -5 14 -11 0 -5 5 -7 10 -4 6 3 10 1 10 -5 0 -7 7 -10 15 -6 8 3 18
-2 23 -10 7 -13 12 -12 33 6 13 12 19 19 12 16 -12 -7 -29 11 -19 21 3 3 27
-11 53 -32 57 -45 74 -61 54 -50 -10 5 -12 4 -7 -4 4 -6 11 -9 15 -6 5 2 17
-3 27 -11 10 -9 13 -12 5 -8 -9 4 -12 3 -7 -4 4 -6 13 -9 21 -5 8 3 15 -1 15
-8 0 -7 3 -10 6 -6 4 3 13 -1 21 -9 8 -8 18 -12 23 -9 4 3 11 -2 14 -11 3 -8
11 -12 16 -9 6 4 9 3 8 -2 -2 -4 1 -10 7 -13 5 -3 19 -14 30 -25 12 -11 31
-27 42 -37 20 -16 22 -15 33 12 8 19 21 30 42 34 26 5 69 -13 262 -109 244
-122 335 -170 350 -186 6 -5 153 -9 357 -9 l348 0 80 55 c44 30 83 55 86 55 3
0 23 11 44 24 21 14 41 23 43 20 3 -2 11 2 18 11 7 8 16 15 21 15 8 0 131 79
139 90 3 4 10 9 15 11 6 2 36 20 68 39 102 61 171 100 217 123 25 12 47 25 50
28 5 6 41 20 65 25 6 1 18 5 29 10 18 7 18 3 11 -87 -8 -87 -8 -290 0 -297 1
-2 17 5 34 16 17 10 28 22 24 25 -3 4 1 7 10 7 9 0 17 5 17 11 0 5 14 24 30
42 17 18 33 40 36 50 3 9 9 15 13 13 4 -3 21 16 37 41 16 26 39 59 52 74 12
15 22 31 21 36 -4 21 2 32 15 27 14 -6 28 -57 41 -156 7 -52 18 -66 40 -48 12
10 15 8 17 -11 2 -25 4 -47 8 -64 1 -5 2 -18 1 -28 -1 -9 2 -17 7 -17 5 0 12
-24 15 -52 7 -58 15 -106 22 -125 3 -8 24 -13 55 -13 49 0 52 1 66 37 9 20 17
46 19 57 1 12 5 28 8 36 13 33 28 103 33 152 3 29 9 57 14 62 12 12 38 -81 52
-182 7 -45 15 -82 20 -82 4 0 5 6 2 13 -2 7 3 21 11 32 15 19 16 19 5 -5 -10
-24 -10 -24 4 -6 10 12 12 23 7 30 -11 13 12 49 25 38 4 -4 2 2 -6 12 -14 18
-13 19 5 12 11 -4 16 -4 12 0 -4 4 -1 14 6 22 9 13 9 14 0 8 -19 -11 -16 5 5
21 10 9 11 12 2 7 -12 -5 -12 -4 -3 6 6 7 9 19 6 28 -4 9 -2 13 4 9 6 -4 14 0
17 9 4 10 2 13 -6 8 -8 -5 -9 0 -5 17 4 13 7 27 7 32 0 4 5 7 11 7 5 0 7 -5 3
-12 -5 -7 -3 -8 6 -3 8 5 21 -3 37 -21 34 -40 119 -201 133 -251 l11 -43 78 0
c55 0 78 4 79 13 0 6 3 21 6 32 2 11 5 28 5 38 1 12 5 16 14 11 8 -5 8 -2 -2
9 -7 9 -9 17 -3 17 5 0 10 12 10 28 1 59 5 91 13 87 4 -3 6 3 4 12 -1 10 4 30
11 44 7 15 10 30 6 33 -8 9 -11 56 -3 56 3 0 6 24 6 53 1 28 4 81 9 117 9 74
13 114 20 220 7 98 27 249 39 305 2 6 7 16 11 24 6 10 5 12 -2 7 -7 -4 -12 -2
-12 3 0 6 6 11 13 11 8 0 7 4 -3 10 -12 8 -12 10 -1 10 11 0 11 3 1 15 -7 8
-8 15 -3 15 5 0 9 15 10 33 1 31 6 60 18 98 4 12 2 19 -7 19 -10 0 -9 3 2 10
13 9 13 10 0 10 -13 0 -13 1 0 10 13 9 13 10 0 10 -13 0 -13 1 0 10 11 7 11
10 2 10 -7 0 -10 5 -7 10 4 6 8 27 10 48 6 54 15 104 22 115 4 6 1 7 -7 2 -9
-6 -11 -4 -5 5 13 21 14 130 1 130 -7 0 -8 3 -1 8 12 8 15 786 3 797 -4 4 -3
16 3 26 7 14 6 19 -3 19 -9 0 -9 3 2 10 13 9 13 10 0 10 -13 0 -13 1 0 10 13
9 13 10 0 10 -13 0 -13 1 0 10 8 5 10 10 4 10 -6 0 -11 41 -13 112 -1 62 -5
116 -7 120 -3 4 -1 8 5 8 7 0 7 8 1 25 -6 16 -6 25 1 25 6 0 6 6 0 18 -7 13
-7 22 0 29 8 8 7 13 0 17 -6 4 -11 12 -11 17 0 6 5 7 11 3 8 -5 8 -1 0 14 -7
14 -8 23 -1 27 5 3 10 12 10 18 0 7 -4 6 -10 -3 -8 -12 -10 -10 -10 8 0 13 4
21 8 18 5 -3 9 1 9 9 0 8 -5 12 -10 8 -5 -3 -6 4 -2 16 4 13 1 29 -7 38 -9 12
-9 15 0 9 7 -4 12 -1 12 8 0 9 -5 16 -11 16 -8 0 -8 5 1 15 7 9 8 15 2 15 -12
0 -11 18 2 39 6 9 5 12 -1 8 -7 -5 -11 10 -12 41 0 26 -4 70 -7 97 -4 28 -7
71 -8 97 0 25 -5 44 -10 41 -5 -3 -7 6 -4 21 3 14 1 26 -3 26 -5 0 -9 5 -9 11
0 5 6 7 13 3 8 -5 8 -2 -2 9 -7 9 -10 17 -5 17 5 0 2 5 -6 10 -13 8 -12 10 4
10 19 0 19 1 2 13 -9 7 -16 17 -15 22 1 6 -1 18 -6 29 -5 12 -3 21 6 27 11 7
10 9 -5 9 -15 0 -16 3 -7 14 9 11 9 16 -1 23 -13 8 -40 74 -43 104 0 9 -11 28
-23 43 -22 28 -24 73 -3 69 6 -2 11 1 11 6 0 5 17 27 38 48 20 22 39 46 41 53
9 34 7 90 -3 90 -6 0 -4 5 4 10 13 9 13 10 0 10 -12 0 -12 2 -1 9 11 7 10 15
-4 45 -10 20 -21 36 -26 36 -17 0 -9 26 19 57 37 41 67 85 65 92 -1 3 5 10 13
14 8 5 12 12 9 18 -4 5 -2 9 3 9 6 0 13 7 16 16 4 10 2 13 -6 8 -7 -4 -3 6 9
22 26 37 28 45 11 55 -10 7 -10 9 2 9 20 0 18 103 -2 127 -9 12 -9 15 0 9 6
-4 12 -3 12 3 0 5 -6 12 -12 14 -10 4 -9 6 1 6 11 1 11 4 1 16 -7 8 -9 15 -5
15 4 0 2 7 -5 15 -7 8 -10 15 -7 15 3 0 0 15 -8 34 -8 18 -11 36 -8 40 4 3 1
6 -5 6 -7 0 -12 7 -12 15 0 8 -5 15 -11 15 -5 0 -8 4 -4 10 3 5 -3 18 -13 28
-10 10 -16 24 -14 30 2 7 -3 15 -12 18 -9 3 -13 10 -10 15 3 5 0 9 -5 9 -6 0
-11 10 -11 23 0 18 -2 19 -10 7 -8 -13 -10 -12 -10 3 0 11 -4 15 -12 11 -7 -5
-9 -2 -6 8 4 8 -2 22 -13 32 -11 9 -17 21 -14 27 4 5 3 9 -2 8 -18 -3 -34 2
-29 9 3 4 -11 21 -31 38 -20 16 -46 38 -57 49 -12 12 -29 24 -39 28 -9 3 -17
11 -17 17 0 6 -4 9 -9 5 -5 -3 -16 1 -24 9 -8 8 -17 12 -21 9 -3 -4 -6 -1 -6
5 0 7 -7 12 -15 12 -8 0 -15 5 -15 11 0 5 -4 8 -9 4 -5 -3 -12 -1 -16 5 -4 6
-11 8 -16 5 -5 -4 -9 -1 -9 5 0 6 -4 9 -9 5 -5 -3 -12 -1 -16 5 -4 6 -11 8
-16 5 -5 -4 -9 -2 -9 2 0 5 -10 10 -22 10 -13 1 -24 7 -26 13 -3 8 -8 7 -18
-1 -11 -9 -14 -9 -14 1 0 7 -7 10 -15 6 -8 -3 -15 -1 -15 3 0 5 -9 7 -20 4
-11 -3 -20 -1 -20 3 0 5 -15 10 -33 11 -43 4 -60 7 -74 16 -6 4 -14 3 -17 -2
-4 -6 -18 -6 -36 -1 -19 5 -32 5 -36 -2 -4 -7 -9 -6 -14 2 -5 7 -10 8 -14 2z
m774 -5116 c0 -3 -4 -8 -10 -11 -5 -3 -10 -1 -10 4 0 6 5 11 10 11 6 0 10 -2
10 -4z"/>
<path d="M4555 160 c-3 -5 -1 -10 4 -10 6 0 11 5 11 10 0 6 -2 10 -4 10 -3 0
-8 -4 -11 -10z"/>
</g>
</svg>
